<?xml version="1.0" encoding="utf-8"?>
<!-- Generator: Adobe Illustrator 25.0.0, SVG Export Plug-In . SVG Version: 6.00 Build 0)  -->
<svg version="1.1" id="Layer_1" xmlns="http://www.w3.org/2000/svg" xmlns:xlink="http://www.w3.org/1999/xlink" x="0px" y="0px"
	 viewBox="0 0 123 123" style="enable-background:new 0 0 123 123;" xml:space="preserve">
<style type="text/css">
	.st0{fill:#3EA481;}
	.st1{fill:#FFFFFF;}
</style>
<circle class="st0" cx="61.5" cy="61.5" r="61.5"/>
<g>
	<g>
		<g>
			<path class="st1" d="M85.1,51c0-13-10.6-23.6-23.6-23.6S37.9,38,37.9,51c0,5.3,3.7,14.1,11.1,26.1c3.8,6.2,7.7,11.7,9.6,14.4
				h-8.3v4h22.5v-4h-8.3c1.9-2.7,5.8-8.2,9.6-14.4C81.4,65.2,85.1,56.4,85.1,51z M61.5,88.8C54.8,79.4,41.9,59.6,41.9,51
				c0-10.8,8.8-19.6,19.6-19.6S81.1,40.2,81.1,51C81.1,59.5,68.2,79.4,61.5,88.8z"/>
		</g>
	</g>
	<g>
		<g>
			<path class="st1" d="M61.5,38.5c-6.7,0-12.1,5.4-12.1,12.1s5.4,12.1,12.1,12.1s12.1-5.4,12.1-12.1S68.2,38.5,61.5,38.5z
				 M61.5,58.8c-4.5,0-8.1-3.7-8.1-8.1s3.7-8.1,8.1-8.1s8.1,3.7,8.1,8.1S66,58.8,61.5,58.8z"/>
		</g>
	</g>
</g>
</svg>
