<?xml version="1.0" encoding="utf-8"?>
<!-- Generator: Adobe Illustrator 25.0.0, SVG Export Plug-In . SVG Version: 6.00 Build 0)  -->
<svg version="1.1" id="Layer_1" xmlns="http://www.w3.org/2000/svg" xmlns:xlink="http://www.w3.org/1999/xlink" x="0px" y="0px"
	 viewBox="0 0 257.5 223" style="enable-background:new 0 0 257.5 223;" xml:space="preserve">
<style type="text/css">
	.st0{fill:#FDD3D0;stroke:#E9A912;stroke-width:20;stroke-miterlimit:10;}
</style>
<polygon class="st0" points="187.35,10 70.15,10 11.55,111.5 70.15,213 187.35,213 245.95,111.5 "/>
<g>
	<path d="M61.1,104.88V79.73h8.08c2.37,0,4.21,0.58,5.53,1.74c1.27,1.12,1.91,2.54,1.91,4.27c0,2.84-1.03,4.66-3.09,5.45
		c-0.35,0.14-0.77,0.27-1.25,0.38c1.39,0.27,2.55,0.94,3.45,2.01c0.96,1.14,1.44,2.63,1.44,4.48c0,2.63-0.83,4.5-2.49,5.59
		c-1.27,0.82-3.07,1.23-5.38,1.23H61.1z M65.07,90.14h4.08c1.12,0,2.09-0.43,2.91-1.29c0.64-0.66,0.96-1.54,0.96-2.64
		c0-2.09-1.29-3.14-3.87-3.14h-4.08V90.14z M65.07,101.54h4.25c1.55,0,2.65-0.37,3.29-1.1c0.54-0.61,0.81-1.51,0.81-2.71
		c0-0.99-0.37-1.91-1.11-2.79c-0.79-0.93-1.78-1.39-2.99-1.39h-4.25V101.54z"/>
	<path d="M80.16,97.44V79.73h3.97V96.5c0,2.8,0.9,4.54,2.71,5.21c0.46,0.18,0.98,0.27,1.56,0.27c0.58,0,1.1-0.08,1.56-0.23
		s0.84-0.35,1.13-0.58c0.29-0.23,0.54-0.53,0.75-0.89c0.21-0.36,0.37-0.69,0.46-0.99s0.18-0.65,0.25-1.06
		c0.07-0.53,0.1-1.11,0.1-1.73V79.73h4.05v17.71c0,2.53-0.84,4.54-2.51,6.03c-1.38,1.23-3.31,1.84-5.78,1.84
		c-3.75,0-6.24-1.42-7.47-4.27C80.42,99.87,80.16,98.67,80.16,97.44z"/>
	<path d="M109.89,93.24v11.64h-3.95V93.24l-7.3-13.51h4.18l5.1,9.51l5.1-9.51h4.18L109.89,93.24z"/>
	<path d="M123.82,83.07v-3.34h17.55v3.34h-6.79v21.81h-3.97V83.07H123.82z"/>
	<path d="M141.7,94.9c-0.11-0.84-0.17-1.68-0.17-2.51s0.05-1.67,0.15-2.51c0.1-0.84,0.27-1.7,0.5-2.56
		c0.23-0.87,0.52-1.69,0.86-2.47c0.34-0.77,0.78-1.51,1.3-2.2c0.53-0.69,1.11-1.29,1.77-1.78c1.4-1.07,3.12-1.61,5.13-1.61
		c2.77,0,4.98,1.14,6.64,3.42c1.79,2.48,2.69,5.72,2.69,9.71c0,4.07-0.86,7.28-2.59,9.63c-1.62,2.19-3.86,3.29-6.74,3.29
		c-2.73,0-4.97-1.1-6.72-3.3C143.04,100.15,142.1,97.78,141.7,94.9z M145.81,88.79c-0.12,0.66-0.2,1.28-0.24,1.85
		c-0.04,0.58-0.07,1.17-0.07,1.77c0,0.6,0.02,1.2,0.07,1.78c0.04,0.59,0.12,1.21,0.24,1.86c0.12,0.65,0.26,1.26,0.44,1.81
		c0.18,0.55,0.42,1.09,0.72,1.6c0.3,0.51,0.64,0.95,1.02,1.32c0.85,0.8,1.93,1.2,3.22,1.2c3.6,0,5.4-3.2,5.4-9.6
		c0-5.21-1.22-8.36-3.65-9.43c-0.53-0.23-1.12-0.35-1.77-0.35s-1.25,0.12-1.79,0.35s-1.01,0.54-1.39,0.92s-0.73,0.84-1.03,1.39
		c-0.3,0.54-0.55,1.1-0.72,1.68C146.07,87.51,145.92,88.13,145.81,88.79z"/>
	<path d="M163.68,97.44V79.73h3.97V96.5c0,2.8,0.9,4.54,2.71,5.21c0.46,0.18,0.98,0.27,1.56,0.27c0.57,0,1.1-0.08,1.56-0.23
		s0.84-0.35,1.13-0.58c0.29-0.23,0.54-0.53,0.75-0.89c0.21-0.36,0.37-0.69,0.46-0.99s0.18-0.65,0.25-1.06
		c0.07-0.53,0.1-1.11,0.1-1.73V79.73h4.05v17.71c0,2.53-0.84,4.54-2.51,6.03c-1.38,1.23-3.31,1.84-5.78,1.84
		c-3.75,0-6.24-1.42-7.47-4.27C163.94,99.87,163.68,98.67,163.68,97.44z"/>
	<path d="M184.17,104.88V79.73h8.45c3.88,0,6.34,1.39,7.37,4.17c0.3,0.81,0.45,1.64,0.45,2.51s-0.1,1.65-0.29,2.36
		c-0.19,0.71-0.48,1.37-0.86,1.98c-0.83,1.33-2.05,2.16-3.67,2.51l4.65,11.64h-4.07l-4.35-10.91h-3.72v10.91H184.17z M188.13,90.62
		h4.2c1.16,0,2.13-0.32,2.9-0.95c0.82-0.67,1.23-1.71,1.23-3.1c0-2.33-1.85-3.5-5.56-3.5h-2.77V90.62z"/>
	<path d="M75.95,123.87v-3.34H93.5v3.34h-6.79v21.81h-3.97v-21.81H75.95z"/>
	<path d="M95.19,145.68v-25.15h3.97v25.15H95.19z"/>
	<path d="M102.11,136.22c-0.18-1.04-0.27-2.09-0.27-3.15s0.08-2.11,0.25-3.14s0.41-2.03,0.74-3.01c0.33-0.98,0.75-1.88,1.28-2.71
		c0.53-0.82,1.13-1.55,1.8-2.17c1.44-1.32,3.23-1.98,5.36-1.98c2.71,0,4.85,1.36,6.42,4.07c0.76,1.32,1.28,2.67,1.54,4.07v0.02
		l-3.45,0.93c-0.18-1.18-0.39-2.05-0.63-2.6c-0.24-0.55-0.49-1.01-0.73-1.38c-0.24-0.37-0.51-0.68-0.8-0.92
		c-0.69-0.56-1.46-0.85-2.33-0.85c-0.87,0-1.61,0.2-2.23,0.59c-0.62,0.39-1.13,0.91-1.53,1.54c-0.4,0.64-0.73,1.38-1,2.23
		c-0.49,1.57-0.73,3.34-0.73,5.31c0,5.22,1.24,8.34,3.72,9.36c0.53,0.22,1.1,0.33,1.69,0.33s1.13-0.08,1.6-0.23
		c0.47-0.16,0.87-0.36,1.19-0.61c0.32-0.25,0.61-0.54,0.85-0.89s0.45-0.69,0.6-1.04c0.15-0.35,0.27-0.71,0.36-1.07
		c0.17-0.64,0.25-1.24,0.25-1.79l3.7,0.51c-0.5,2.12-1.37,3.97-2.61,5.53c-1.57,1.95-3.55,2.92-5.93,2.92
		c-2.92,0-5.27-1.39-7.06-4.17C103.18,140.39,102.49,138.48,102.11,136.22z"/>
	<path d="M122.48,145.68v-25.15h4v11.19l8.38-11.19h4.18l-7.45,9.81l7.92,15.34h-4.37l-6.09-12l-2.57,3.39v8.62H122.48z"/>
	<path d="M141.59,145.68v-25.15h14.39v3.34h-10.43v6.96h7.25v3.35h-7.25v7.94h11.06v3.57H141.59z"/>
	<path d="M157.5,123.87v-3.34h17.55v3.34h-6.79v21.81h-3.97v-21.81H157.5z"/>
	<path d="M175.49,139.24l3.19-1.05c0.01,0,0.03,0.08,0.07,0.25s0.09,0.38,0.17,0.66c0.08,0.27,0.2,0.57,0.35,0.9
		c0.15,0.33,0.37,0.65,0.66,0.98c0.29,0.33,0.62,0.62,1.01,0.89c0.86,0.61,1.94,0.91,3.22,0.91s2.23-0.32,2.83-0.95
		c0.6-0.63,0.91-1.38,0.91-2.25c0-0.87-0.09-1.57-0.27-2.11c-0.18-0.54-0.49-1-0.93-1.4c-0.74-0.66-2.03-1.26-3.85-1.79
		c-3.22-0.94-5.29-2.4-6.21-4.37c-0.48-1.03-0.71-2.24-0.71-3.64c0-1.17,0.42-2.32,1.25-3.44c1.45-1.85,3.51-2.77,6.18-2.77
		c2.11,0,3.85,0.64,5.2,1.91c0.96,0.9,1.68,2.03,2.16,3.39l0.32,0.88c0.1,0.27,0.17,0.44,0.2,0.51l-3.24,1.15
		c-0.73-2.32-1.87-3.76-3.42-4.3c-0.39-0.13-0.79-0.2-1.21-0.2c-2.3,0-3.45,1.18-3.45,3.55c0,1.08,0.32,1.92,0.96,2.49
		c0.53,0.5,1.23,0.89,2.09,1.18l0.8,0.27c0.45,0.16,0.7,0.24,0.75,0.25l0.73,0.25c1.89,0.66,3.17,1.25,3.83,1.76
		c0.97,0.75,1.61,1.44,1.91,2.08c0.6,1.29,0.9,2.66,0.9,4.1c0,1.13-0.32,2.27-0.96,3.44c-0.86,1.56-2.23,2.58-4.1,3.07
		c-0.72,0.19-1.5,0.28-2.36,0.28s-1.65-0.08-2.4-0.23c-0.75-0.16-1.39-0.37-1.93-0.63s-1.04-0.57-1.49-0.91s-0.84-0.71-1.15-1.09
		c-0.31-0.38-0.58-0.76-0.81-1.15c-0.23-0.38-0.42-0.74-0.56-1.09c-0.14-0.34-0.25-0.65-0.34-0.91s-0.15-0.48-0.19-0.63
		C175.53,139.32,175.5,139.24,175.49,139.24z"/>
</g>
</svg>
