<?xml version="1.0" encoding="utf-8"?>
<!-- Generator: Adobe Illustrator 25.0.0, SVG Export Plug-In . SVG Version: 6.00 Build 0)  -->
<svg version="1.1" id="Layer_1" xmlns="http://www.w3.org/2000/svg" xmlns:xlink="http://www.w3.org/1999/xlink" x="0px" y="0px"
	 viewBox="0 0 123 123" style="enable-background:new 0 0 123 123;" xml:space="preserve">
<style type="text/css">
	.st0{fill:#3EA481;}
	.st1{fill:#FFFFFF;}
</style>
<g>
	<circle class="st0" cx="61.5" cy="61.5" r="61.5"/>
	<g>
		<g>
			<path class="st1" d="M89.1,36H33.9c-3.2,0-5.9,2.6-5.9,5.9v39.2c0,3.2,2.6,5.9,5.9,5.9h55.2c3.2,0,5.9-2.6,5.9-5.9V41.9
				C95,38.7,92.3,36,89.1,36z M88.3,39.9L61.6,66.6L34.8,39.9H88.3z M32,80.3V42.7l18.9,18.7L32,80.3z M34.7,83.1l18.9-18.9l6.6,6.6
				c0.8,0.8,2,0.8,2.8,0l6.5-6.5l18.8,18.8C88.3,83.1,34.7,83.1,34.7,83.1z M91.1,80.3L72.2,61.5l18.8-18.8V80.3z"/>
		</g>
	</g>
</g>
</svg>
