<?xml version="1.0" encoding="utf-8"?>
<!-- Generator: Adobe Illustrator 25.0.0, SVG Export Plug-In . SVG Version: 6.00 Build 0)  -->
<svg version="1.1" id="Layer_1" xmlns="http://www.w3.org/2000/svg" xmlns:xlink="http://www.w3.org/1999/xlink" x="0px" y="0px"
	 viewBox="0 0 170 43" style="enable-background:new 0 0 170 43;" xml:space="preserve">
<style type="text/css">
	.st0{fill:#3EA481;}
	.st1{fill:#FFFFFF;}
</style>
<g>
	<rect class="st0" width="170" height="43"/>
</g>
<g>
	<path class="st1" d="M22.95,23.71c-0.12-0.73-0.19-1.48-0.19-2.23s0.06-1.49,0.18-2.21s0.29-1.44,0.52-2.13s0.53-1.33,0.9-1.91
		s0.79-1.09,1.27-1.53c1.02-0.93,2.28-1.39,3.79-1.39c1.91,0,3.43,0.96,4.54,2.87c0.54,0.93,0.9,1.89,1.09,2.87v0.01l-2.44,0.66
		c-0.12-0.84-0.27-1.45-0.45-1.83s-0.34-0.71-0.52-0.97s-0.36-0.48-0.56-0.65c-0.48-0.4-1.03-0.6-1.65-0.6s-1.14,0.14-1.58,0.42
		s-0.8,0.64-1.08,1.09s-0.52,0.97-0.7,1.58c-0.34,1.11-0.52,2.36-0.52,3.75c0,3.69,0.88,5.89,2.62,6.61
		c0.38,0.16,0.77,0.23,1.2,0.23s0.8-0.05,1.13-0.16s0.61-0.25,0.84-0.43s0.43-0.38,0.6-0.63s0.32-0.49,0.42-0.73s0.19-0.5,0.25-0.76
		c0.12-0.45,0.18-0.88,0.18-1.27l2.61,0.36c-0.35,1.5-0.96,2.8-1.84,3.9c-1.11,1.38-2.5,2.06-4.18,2.06c-2.06,0-3.72-0.98-4.98-2.94
		C23.7,26.65,23.22,25.3,22.95,23.71z"/>
	<path class="st1" d="M36.74,23.35c-0.08-0.59-0.12-1.18-0.12-1.77s0.04-1.18,0.11-1.77s0.19-1.2,0.35-1.81s0.37-1.19,0.61-1.74
		s0.55-1.06,0.92-1.55s0.79-0.91,1.25-1.26c0.99-0.76,2.2-1.14,3.62-1.14c1.95,0,3.52,0.8,4.69,2.41c1.27,1.75,1.9,4.04,1.9,6.86
		c0,2.88-0.61,5.14-1.83,6.8c-1.14,1.55-2.73,2.32-4.76,2.32c-1.93,0-3.51-0.78-4.75-2.33C37.69,27.05,37.02,25.38,36.74,23.35z
		 M39.64,19.03c-0.08,0.46-0.14,0.9-0.17,1.31s-0.05,0.82-0.05,1.25s0.02,0.85,0.05,1.26s0.09,0.85,0.17,1.31s0.19,0.89,0.31,1.28
		s0.29,0.77,0.51,1.13s0.46,0.67,0.72,0.93c0.6,0.56,1.36,0.84,2.27,0.84c2.54,0,3.81-2.26,3.81-6.77c0-3.68-0.86-5.9-2.58-6.66
		c-0.38-0.16-0.79-0.25-1.25-0.25s-0.88,0.08-1.27,0.25s-0.71,0.38-0.98,0.65s-0.51,0.6-0.73,0.98s-0.38,0.78-0.51,1.18
		S39.72,18.56,39.64,19.03z"/>
	<path class="st1" d="M61.56,23.53v-10.9h2.79v17.75h-2.23l-7.17-13.62v13.62h-2.79V12.63h3.61L61.56,23.53z"/>
	<path class="st1" d="M65.75,14.99v-2.36h12.39v2.36h-4.79v15.4h-2.8v-15.4H65.75z"/>
	<path class="st1" d="M76.79,30.39l5.06-17.75h3.07l5.06,17.75h-2.71l-1.46-5.14h-4.65l-1.46,5.14H76.79z M81.82,22.89h3.32
		l-1.65-5.73L81.82,22.89z"/>
	<path class="st1" d="M90.51,23.71c-0.12-0.73-0.19-1.48-0.19-2.23s0.06-1.49,0.18-2.21s0.29-1.44,0.52-2.13s0.53-1.33,0.9-1.91
		s0.79-1.09,1.27-1.53c1.02-0.93,2.28-1.39,3.79-1.39c1.91,0,3.43,0.96,4.54,2.87c0.54,0.93,0.9,1.89,1.09,2.87v0.01l-2.44,0.66
		c-0.12-0.84-0.27-1.45-0.45-1.83s-0.34-0.71-0.52-0.97s-0.36-0.48-0.56-0.65c-0.48-0.4-1.03-0.6-1.65-0.6s-1.14,0.14-1.58,0.42
		s-0.8,0.64-1.08,1.09s-0.52,0.97-0.7,1.58c-0.34,1.11-0.52,2.36-0.52,3.75c0,3.69,0.88,5.89,2.62,6.61
		c0.38,0.16,0.77,0.23,1.2,0.23s0.8-0.05,1.13-0.16s0.61-0.25,0.84-0.43s0.43-0.38,0.6-0.63s0.32-0.49,0.42-0.73s0.19-0.5,0.25-0.76
		c0.12-0.45,0.18-0.88,0.18-1.27l2.61,0.36c-0.35,1.5-0.96,2.8-1.84,3.9c-1.11,1.38-2.5,2.06-4.18,2.06c-2.06,0-3.72-0.98-4.98-2.94
		C91.26,26.65,90.77,25.3,90.51,23.71z"/>
	<path class="st1" d="M103.19,14.99v-2.36h12.39v2.36h-4.79v15.4h-2.8v-15.4H103.19z"/>
	<path class="st1" d="M122.38,25.14v-12.5h2.8v11.84c0,1.98,0.64,3.2,1.91,3.68c0.33,0.12,0.7,0.19,1.1,0.19s0.77-0.05,1.1-0.16
		s0.59-0.25,0.8-0.41s0.38-0.37,0.53-0.63s0.26-0.49,0.33-0.7s0.13-0.46,0.18-0.75c0.05-0.38,0.07-0.78,0.07-1.22V12.63h2.86v12.5
		c0,1.79-0.59,3.21-1.77,4.25c-0.98,0.87-2.34,1.3-4.08,1.3c-2.65,0-4.41-1-5.27-3.01C122.57,26.85,122.38,26.01,122.38,25.14z"/>
	<path class="st1" d="M135.68,25.84l2.25-0.74c0.01,0,0.02,0.06,0.05,0.18s0.06,0.27,0.12,0.46s0.14,0.4,0.25,0.63
		s0.26,0.46,0.46,0.69s0.44,0.44,0.71,0.63c0.61,0.43,1.37,0.64,2.27,0.64s1.57-0.22,2-0.67s0.64-0.97,0.64-1.59
		s-0.06-1.11-0.19-1.49s-0.34-0.71-0.66-0.99c-0.52-0.47-1.43-0.89-2.72-1.27c-2.27-0.66-3.73-1.69-4.38-3.08
		c-0.34-0.73-0.5-1.58-0.5-2.57c0-0.83,0.29-1.64,0.88-2.43c1.02-1.3,2.48-1.96,4.36-1.96c1.49,0,2.71,0.45,3.67,1.35
		c0.68,0.63,1.19,1.43,1.52,2.39l0.22,0.62c0.07,0.19,0.12,0.31,0.14,0.36l-2.29,0.81c-0.52-1.64-1.32-2.65-2.41-3.04
		c-0.27-0.09-0.56-0.14-0.86-0.14c-1.62,0-2.44,0.84-2.44,2.51c0,0.77,0.23,1.35,0.68,1.76c0.38,0.35,0.87,0.63,1.48,0.83l0.56,0.19
		c0.32,0.11,0.5,0.17,0.53,0.18l0.52,0.18c1.34,0.47,2.24,0.88,2.71,1.24c0.69,0.53,1.14,1.02,1.35,1.46
		c0.42,0.91,0.63,1.88,0.63,2.89c0,0.8-0.23,1.61-0.68,2.43c-0.61,1.1-1.57,1.82-2.89,2.17c-0.51,0.13-1.06,0.2-1.66,0.2
		s-1.17-0.05-1.69-0.16s-0.98-0.26-1.37-0.45s-0.73-0.4-1.05-0.64s-0.59-0.5-0.81-0.77s-0.41-0.54-0.57-0.81s-0.29-0.53-0.39-0.77
		s-0.18-0.46-0.24-0.64s-0.11-0.34-0.13-0.45S135.69,25.84,135.68,25.84z"/>
</g>
</svg>
