<?xml version="1.0" encoding="utf-8"?>
<!-- Generator: Adobe Illustrator 26.0.1, SVG Export Plug-In . SVG Version: 6.00 Build 0)  -->
<svg version="1.1" id="Layer_1" xmlns="http://www.w3.org/2000/svg" xmlns:xlink="http://www.w3.org/1999/xlink" x="0px" y="0px"
	 viewBox="0 0 142.6 142.6" style="enable-background:new 0 0 142.6 142.6;" xml:space="preserve">
<style type="text/css">
	.st0{fill-rule:evenodd;clip-rule:evenodd;fill:#A73936;}
	.st1{fill-rule:evenodd;clip-rule:evenodd;fill:#FBF1DF;}
	.st2{fill-rule:evenodd;clip-rule:evenodd;fill:#1F1A10;}
	.st3{fill:#F7F3EF;}
</style>
<g id="facebook">
	<path class="st0" d="M32.1,2h77.6c16.8,0,30.5,13.8,30.5,30.5V110c0,16.8-13.8,30.6-30.5,30.6H32.1c-16.8,0-30.5-13.8-30.5-30.6
		V32.5C1.6,15.7,15.3,2,32.1,2L32.1,2z"/>
	<path class="st1" d="M77.5,55.6v-6.7c0-3.2,2.2-4,3.7-4s9.4,0,9.4,0V30.6H77.7c-14.3,0-17.5,10.6-17.5,17.5v7.5h-8.3v10.1v6.6h8.4
		c0,18.9,0,41.7,0,41.7H77c0,0,0-23,0-41.7h12.4l0.6-6.6l1-10.1C91,55.6,77.5,55.6,77.5,55.6z"/>
</g>
<g id="instagram">
	<path class="st2" d="M31.4,0h79.8c17.2,0,31.4,14.1,31.4,31.4v79.7c0,17.3-14.1,31.4-31.4,31.4H31.4C14.1,142.6,0,128.4,0,111.1
		V31.4C0,14.1,14.1,0,31.4,0L31.4,0z"/>
	<path class="st3" d="M92.2,119.8H50.4c-15.2,0-27.6-12.4-27.6-27.6V50.4c0-15.2,12.4-27.6,27.6-27.6h41.8
		c15.2,0,27.6,12.4,27.6,27.6v41.8C119.8,107.4,107.4,119.8,92.2,119.8z M50.4,31.1c-10.6,0-19.3,8.7-19.3,19.3v41.8
		c0,10.6,8.7,19.3,19.3,19.3h41.8c10.6,0,19.3-8.7,19.3-19.3V50.4c0-10.6-8.7-19.3-19.3-19.3C92.2,31.1,50.4,31.1,50.4,31.1z"/>
	<path class="st3" d="M71.3,96.1c-13.7,0-24.8-11.1-24.8-24.8s11.1-24.8,24.8-24.8s24.8,11.1,24.8,24.8C96.1,85,85,96.1,71.3,96.1z
		 M71.3,54.7c-9.1,0-16.5,7.4-16.5,16.5s7.4,16.5,16.5,16.5s16.5-7.4,16.5-16.5C87.8,62.2,80.4,54.7,71.3,54.7z"/>
	<path class="st3" d="M103.2,45c0,3.3-2.7,6-6,6s-6-2.7-6-6s2.7-6,6-6S103.2,41.7,103.2,45z"/>
</g>
</svg>
