<?xml version="1.0" encoding="utf-8"?>
<!-- Generator: Adobe Illustrator 26.0.1, SVG Export Plug-In . SVG Version: 6.00 Build 0)  -->
<svg version="1.1" id="Layer_1" xmlns="http://www.w3.org/2000/svg" xmlns:xlink="http://www.w3.org/1999/xlink" x="0px" y="0px"
	 viewBox="0 0 142.6 142.6" style="enable-background:new 0 0 142.6 142.6;" xml:space="preserve">
<style type="text/css">
	.st0{fill-rule:evenodd;clip-rule:evenodd;fill:#1F1A10;}
	.st1{fill-rule:evenodd;clip-rule:evenodd;fill:#F7F3EF;}
</style>
<g id="facebook">
	<path class="st0" d="M32.1,2h77.6c16.8,0,30.5,13.8,30.5,30.5V110c0,16.8-13.8,30.6-30.5,30.6H32.1c-16.8,0-30.5-13.8-30.5-30.6
		V32.5C1.6,15.7,15.3,2,32.1,2L32.1,2z"/>
	<path class="st1" d="M77.5,55.6v-6.7c0-3.2,2.2-4,3.7-4s9.4,0,9.4,0V30.6H77.7c-14.3,0-17.5,10.6-17.5,17.5v7.5h-8.3v10.1v6.6h8.4
		c0,18.9,0,41.7,0,41.7H77c0,0,0-23,0-41.7h12.4l0.6-6.6l1-10.1C91,55.6,77.5,55.6,77.5,55.6z"/>
</g>
</svg>
