<svg id="Layer_1" data-name="Layer 1" xmlns="http://www.w3.org/2000/svg" viewBox="0 0 67.54 64.45"><defs><style>.cls-1{fill:#231f20;stroke:#231f20;stroke-miterlimit:10;stroke-width:4px;}</style></defs><path class="cls-1" d="M33.93,2.1l9.68,19.62a.15.15,0,0,0,.13.09L65.4,25a.17.17,0,0,1,.09.29L49.82,40.53a.17.17,0,0,0,0,.15l3.7,21.57a.17.17,0,0,1-.25.18L33.85,52.25a.15.15,0,0,0-.16,0L14.32,62.43a.17.17,0,0,1-.25-.18l3.7-21.57a.17.17,0,0,0-.05-.15L2.05,25.25a.17.17,0,0,1,.1-.29L23.8,21.81a.14.14,0,0,0,.13-.09L33.62,2.1A.17.17,0,0,1,33.93,2.1Z"/></svg>