<?xml version="1.0" encoding="utf-8"?>
<!-- Generator: Adobe Illustrator 26.0.0, SVG Export Plug-In . SVG Version: 6.00 Build 0)  -->
<svg version="1.1" id="Layer_1" xmlns="http://www.w3.org/2000/svg" xmlns:xlink="http://www.w3.org/1999/xlink" x="0px" y="0px"
	 viewBox="0 0 67.5 64.5" style="enable-background:new 0 0 67.5 64.5;" xml:space="preserve">
<style type="text/css">
	.st0{fill:none;stroke:#000000;stroke-width:6;stroke-miterlimit:10;}
</style>
<path class="st0" d="M33.9,2.1l9.7,19.6c0,0.1,0.1,0.1,0.1,0.1L65.4,25c0.1,0,0.2,0.2,0.1,0.3L49.8,40.5c0,0-0.1,0.1,0,0.2l3.7,21.6
	c0,0.1-0.1,0.2-0.2,0.2L33.9,52.2c-0.1,0-0.1,0-0.2,0L14.3,62.4c-0.1,0.1-0.3,0-0.2-0.2l3.7-21.6c0-0.1,0-0.1,0-0.2L2.1,25.3
	C2,25.2,2,25,2.1,25l21.7-3.1c0.1,0,0.1,0,0.1-0.1l9.7-19.6C33.7,2,33.9,2,33.9,2.1z"/>
</svg>
