<?xml version="1.0" encoding="utf-8"?>
<!-- Generator: Adobe Illustrator 25.2.1, SVG Export Plug-In . SVG Version: 6.00 Build 0)  -->
<svg version="1.1" id="Layer_1" xmlns="http://www.w3.org/2000/svg" xmlns:xlink="http://www.w3.org/1999/xlink" x="0px" y="0px"
	 viewBox="0 0 50 50" style="enable-background:new 0 0 50 50;" xml:space="preserve">
<style type="text/css">
	.st0{fill:#FF8676;}
	.st1{fill:#FFFFFF;}
</style>
<g id="Group_11" transform="translate(-26 -19)">
	<circle id="Ellipse_2" class="st0" cx="51" cy="44" r="25"/>
	<path id="Rectangle_58" class="st1" d="M38,34.6h26c1.1,0,2,0.9,2,2l0,0c0,1.1-0.9,2-2,2H38c-1.1,0-2-0.9-2-2l0,0
		C36,35.5,36.9,34.6,38,34.6z"/>
	<path id="Rectangle_60" class="st1" d="M38,50.2h26c1.1,0,2,0.9,2,2l0,0c0,1.1-0.9,2-2,2H38c-1.1,0-2-0.9-2-2l0,0
		C36,51.1,36.9,50.2,38,50.2z"/>
	<path id="Rectangle_59" class="st1" d="M35.5,42.4h25c1.1,0,2,0.9,2,2l0,0c0,1.1-0.9,2-2,2h-25c-1.1,0-2-0.9-2-2l0,0
		C33.5,43.3,34.4,42.4,35.5,42.4z"/>
</g>
</svg>
