<?xml version="1.0" encoding="utf-8"?>
<!-- Generator: Adobe Illustrator 25.2.1, SVG Export Plug-In . SVG Version: 6.00 Build 0)  -->
<svg version="1.1" id="Layer_1" xmlns="http://www.w3.org/2000/svg" xmlns:xlink="http://www.w3.org/1999/xlink" x="0px" y="0px"
	 viewBox="0 0 30 30" style="enable-background:new 0 0 30 30;" xml:space="preserve">
<style type="text/css">
	.st0{fill-rule:evenodd;clip-rule:evenodd;fill:#FF8676;}
</style>
<path id="SOME-facebook" class="st0" d="M14.9,30L14.9,30z M14.9,30L14.9,30z M15.1,30L15.1,30z M14.9,30L14.9,30z M15.1,30L15.1,30
	z M14.8,30L14.8,30z M15.2,30L15.2,30z M14.8,30L14.8,30z M15.3,30L15.3,30z M14.7,30L14.7,30z M14.7,30L14.7,30z M14.6,30L14.6,30z
	 M15.4,30L15.4,30z M15.4,30L15.4,30z M14.6,30L14.6,30z M14.5,30L14.5,30z M15.5,30L15.5,30z M15.5,30L15.5,30z M14.5,30L14.5,30z
	 M14.4,30L14.4,30z M15.6,30L15.6,30z M14.4,30L14.4,30z M15.6,30L15.6,30z M14.3,30L14.3,30z M15.7,30L15.7,30z M14.3,30L14.3,30z
	 M15.7,30L15.7,30z M14.2,30L14.2,30z M15.8,30L15.8,30z M15.8,30L15.8,30z M14.2,30L14.2,30z M15.9,30L15.9,30z M14.1,30L14.1,30z
	 M14.1,30L14.1,30z M15.9,30L15.9,30z M14,30L14,30z M16,30L16,30z M16,30L16,30z M14,30L14,30z M13.9,30L13.9,30z M16.1,30L16.1,30
	z M13.9,30L13.9,30z M16.1,30L16.1,30z M13.8,30L13.8,30z M16.2,30L16.2,30z M13.8,30L13.8,30z M13.7,30L13.7,30z M16.2,30L16.2,30z
	 M13.6,30L13.6,30z M13.6,30L13.6,30z M16.4,30L16.4,30z M12.7,29.9c-8.2-1.3-13.8-9-12.5-17.2S9.2-1,17.3,0.3s13.8,9,12.5,17.2
	c-1,6.4-6.1,11.5-12.5,12.5V19.3h3.5l0.7-4.3h-4.2v-2.8c-0.1-1.2,0.8-2.2,2-2.4c0.2,0,0.3,0,0.5,0h1.9V6.2c-1.1-0.2-2.2-0.3-3.4-0.3
	c-3.4,0-5.7,2.1-5.7,5.8V15H8.8v4.3h3.8L12.7,29.9L12.7,29.9z"/>
</svg>
