<?xml version="1.0" encoding="utf-8"?>
<!-- Generator: Adobe Illustrator 25.2.1, SVG Export Plug-In . SVG Version: 6.00 Build 0)  -->
<svg version="1.1" id="Layer_1" xmlns="http://www.w3.org/2000/svg" xmlns:xlink="http://www.w3.org/1999/xlink" x="0px" y="0px"
	 viewBox="0 0 30 30" style="enable-background:new 0 0 30 30;" xml:space="preserve">
<style type="text/css">
	.st0{fill-rule:evenodd;clip-rule:evenodd;fill:#FF8676;}
</style>
<path id="SOME-instagram" class="st0" d="M15,0c8.3,0,15,6.7,15,15s-6.7,15-15,15S0,23.3,0,15C0,6.7,6.7,0,15,0z M15,5.6
	c-2.5,0-2.9,0-3.9,0.1c-0.8,0-1.5,0.2-2.3,0.4C7.6,6.6,6.6,7.6,6.1,8.9c-0.3,0.7-0.4,1.5-0.4,2.3c0,1-0.1,1.3-0.1,3.9s0,2.9,0.1,3.9
	c0,0.8,0.2,1.5,0.4,2.3c0.5,1.3,1.5,2.3,2.7,2.7c0.7,0.3,1.5,0.4,2.3,0.4c1,0,1.3,0.1,3.9,0.1s2.9,0,3.9-0.1c0.8,0,1.5-0.2,2.3-0.4
	c1.3-0.5,2.3-1.5,2.7-2.7c0.3-0.7,0.4-1.5,0.4-2.3c0-1,0.1-1.3,0.1-3.9s0-2.9-0.1-3.9c0-0.8-0.2-1.5-0.4-2.3
	c-0.5-1.3-1.5-2.3-2.7-2.7c-0.7-0.3-1.5-0.4-2.3-0.4C17.9,5.6,17.5,5.6,15,5.6z M15,7.3c2.5,0,2.8,0,3.8,0.1c0.6,0,1.2,0.1,1.7,0.3
	c0.8,0.3,1.5,1,1.8,1.8c0.2,0.6,0.3,1.1,0.3,1.7c0,1,0.1,1.3,0.1,3.8s0,2.8-0.1,3.8c0,0.6-0.1,1.2-0.3,1.7c-0.3,0.8-1,1.5-1.8,1.8
	c-0.6,0.2-1.1,0.3-1.7,0.3c-1,0-1.3,0.1-3.8,0.1s-2.8,0-3.8-0.1c-0.6,0-1.2-0.1-1.7-0.3c-0.8-0.3-1.5-1-1.8-1.8
	c-0.2-0.6-0.3-1.1-0.3-1.7c0-1-0.1-1.3-0.1-3.8s0-2.8,0.1-3.8c0-0.6,0.1-1.2,0.3-1.7C8,8.7,8.7,8,9.5,7.7c0.6-0.2,1.1-0.3,1.7-0.3
	C12.2,7.3,12.5,7.3,15,7.3L15,7.3z M15,10.2c-2.7,0-4.8,2.2-4.8,4.8s2.2,4.8,4.8,4.8s4.8-2.2,4.8-4.8l0,0
	C19.8,12.3,17.7,10.2,15,10.2z M15,18.1c-1.7,0-3.1-1.4-3.1-3.1c0-1.7,1.4-3.1,3.1-3.1c1.7,0,3.1,1.4,3.1,3.1c0,0,0,0,0,0
	C18.1,16.7,16.7,18.1,15,18.1C15,18.1,15,18.1,15,18.1L15,18.1z M21.1,10c0,0.6-0.5,1.1-1.1,1.1c-0.6,0-1.1-0.5-1.1-1.1
	c0-0.6,0.5-1.1,1.1-1.1C20.6,8.9,21.1,9.4,21.1,10C21.1,10,21.1,10,21.1,10z"/>
</svg>
