<?xml version="1.0" encoding="utf-8"?>
<!-- Generator: Adobe Illustrator 25.2.1, SVG Export Plug-In . SVG Version: 6.00 Build 0)  -->
<svg version="1.1" id="Layer_1" xmlns="http://www.w3.org/2000/svg" xmlns:xlink="http://www.w3.org/1999/xlink" x="0px" y="0px"
	 viewBox="0 0 133.1 36.2" style="enable-background:new 0 0 133.1 36.2;" xml:space="preserve">
<style type="text/css">
	.st0{stroke:#000000;stroke-miterlimit:10;}
</style>
<g>
	<path class="st0" d="M24.9,14c-5.9,2.8-11.3,4.2-12.5,2.9c-1-1.2,0.2-3.1,1-4.5c0.7-1.2,0.9-1.7,0.9-1.7c-0.7-0.4-5.2,4-7.1,7.1
		l0,0c-2.7,4-5.6,8.2-5.9,8.5l-0.6-0.6c0.3-0.4,5.8-8.3,8.5-12.5c0.8-1.2,1.3-2.1,1.6-2.6c-0.7,0.2-2.3,0.8-5.6,2.3l-2.1,1l-0.3-0.7
		c0.7-0.3,1.4-0.6,2.1-1c2.8-1.2,5.4-2.4,6.3-2.4c0.5,0,0.7,0.3,0.6,0.8c-0.1,0.1-0.3,0.7-0.8,1.5c1.5-1.5,3-2.6,3.8-2.1
		c0.8,0.4,0.3,1.3-0.6,2.8c-1.3,2.1-1.6,3-1.1,3.6c0.7,0.8,6.3-0.7,11.5-3.2L24.9,14z M11,10.4L11,10.4L11,10.4z"/>
	<path class="st0" d="M40.4,14c-3.6,1.8-9.4,4.1-12.9,3.4c-2.3-0.5-3.3-2.1-3.2-3.7v-0.1c0.2-1.6,1.5-3.2,3.8-3.2
		c0.9,0,1.6,0.6,1.6,1.4c0,2.2-2.8,3.6-4.4,3.1c0.4,0.7,1.1,1.3,2.2,1.6c3.3,0.7,8.7-1.5,12.4-3.3L40.4,14z M25.1,13.7
		c0.1,1.4,3.9,0.4,3.9-1.8c0-0.4-0.3-0.6-0.8-0.6C26.3,11.3,25.3,12.5,25.1,13.7z"/>
	<path class="st0" d="M44.6,12.9c1.4-1.3,1.3-2-0.1-2c-2.4,0-4.9,3-3.6,4.5c1.4,1.7,10.6,0.6,16.5-2.1l0.3,0.7
		c-6.3,2.9-15.7,3.9-17.4,1.8c-1.7-2,1.1-5.8,4.2-5.8c2.2,0,2.6,1.7,0.6,3.3L44.6,12.9z"/>
	<path class="st0" d="M73.6,14c0,0-6.4,3.5-9.9,3.5c-2.4,0-3.5-1.1-4.4-4.2L59,12.2h-0.1l-2.7,4.2L55.5,16l9.9-15.3l0.7,0.4
		l-6.6,10.2c1-0.2,2.9-0.8,6.1-2.9L66,9.1c-3,2-5.1,2.7-6.2,2.9l0.2,1c0.8,2.8,1.7,3.6,3.6,3.6c3.3,0,9.6-3.3,9.6-3.3L73.6,14z"/>
	<path class="st0" d="M93.6,14c-3.2,1.5-8.3,3-12,3c-3.8,0-5.7-0.9-5.7-2.8c0-0.5,0.1-0.9,0.4-1.4c-0.7,0.3-1.6,0.7-2.6,1.2
		l-0.3-0.7c2.6-1.1,4-1.8,4.5-2.2l0,0l0.5,0.6c-1.3,1.1-1.7,1.8-1.7,2.6c0,1.3,1.6,2,4.9,2c3.6,0,8.6-1.4,11.7-2.9L93.6,14z
		 M80.5,10l-0.4-0.7l1.6-1L82.1,9L80.5,10z"/>
	<path class="st0" d="M103.6,17c-1.2,0-2.2-0.3-3.2-0.8c-0.6,0.6-1.6,1-2.8,1c-1.6,0-3-1.6-3.4-3.5c-0.2,0.1-0.5,0.2-0.7,0.3
		l-0.3-0.7c0.3-0.1,0.6-0.3,0.9-0.4c0-0.6,0.1-1.1,0.2-1.6c0.3-1.1,1-0.7,2.1,0.5c1.2-0.6,2.3-1.2,3.5-1.8c0.3-0.8,1.3-0.9,1.3-0.9
		l0,0c0.5,0,0.7,0.7,0.2,0.9c-0.3,0.2-0.5,0.3-0.8,0.4c0,0.2,0,0.5,0.2,0.8c0.7,1.7,0.7,3.2,0,4.4c0.8,0.4,1.7,0.6,2.7,0.6
		c3.3,0,7.1-1.4,10.2-2.9l0.4,0.7C111,15.5,107,17,103.6,17z M95,12.5c0.3-0.1,0.6-0.3,0.8-0.4c-0.6-0.7-0.6-0.7-0.7-0.6
		C95,11.9,95,12.2,95,12.5z M99.7,15.8c-1.4-0.9-2.5-2.1-3.3-3l-1.3,0.6c0.2,1.6,1.3,3.1,2.6,3.1C98.5,16.5,99.2,16.2,99.7,15.8z
		 M100,10.8c-1,0.6-1.9,1.1-2.9,1.6c0.8,0.9,1.9,2,3.1,2.8c0.6-0.9,0.6-2.3,0-3.7C100.1,11.2,100,11,100,10.8z"/>
	<path class="st0" d="M132.5,14c0,0-9.2,4-12.9,4c-2.5,0-2.8-1.4-0.9-4.1c1.7-2.3,1.9-2.8,1.3-2.8c-2,0-5.4,2.7-7.9,6.2l-0.2,0.3
		l0,0l-0.7-0.4l0.2-0.3l10.8-16.2l0.7,0.4l-7.8,11.7c1.8-1.5,3.6-2.5,4.9-2.5c1.8,0,1.2,1.5-0.6,4.1c-1.6,2.2-1.5,2.9,0.2,2.9
		c3.5,0,12.6-3.9,12.6-3.9L132.5,14z"/>
</g>
<g>
	<path d="M23.4,31.5c0-0.5-0.1-0.9-0.4-1.1s-0.8-0.5-1.5-0.8s-1.3-0.5-1.6-0.8c-0.5-0.4-0.7-0.9-0.7-1.6c0-0.7,0.2-1.2,0.7-1.6
		s1-0.6,1.7-0.6s1.3,0.2,1.8,0.7s0.7,1.1,0.7,1.8h-0.7c0-0.6-0.2-1-0.5-1.4s-0.8-0.5-1.3-0.5s-1,0.1-1.3,0.4s-0.5,0.7-0.5,1.1
		c0,0.4,0.1,0.8,0.4,1.1s0.8,0.5,1.4,0.7s1.1,0.4,1.5,0.7s0.6,0.5,0.7,0.8s0.2,0.7,0.2,1.1c0,0.7-0.2,1.2-0.7,1.6s-1,0.6-1.8,0.6
		c-0.5,0-1-0.1-1.4-0.3s-0.7-0.5-1-0.9s-0.2-0.8-0.2-1.4h0.7c0,0.6,0.2,1.1,0.5,1.4S21,33,21.6,33c0.5,0,1-0.1,1.3-0.4
		S23.4,32,23.4,31.5z"/>
	<path d="M28.8,33.6c-0.1-0.2-0.1-0.5-0.1-0.9c-0.2,0.3-0.4,0.6-0.8,0.7s-0.6,0.3-1,0.3c-0.5,0-1-0.2-1.3-0.5s-0.5-0.7-0.5-1.3
		s0.2-1.1,0.6-1.5s1-0.5,1.8-0.6h1.1v-0.9c0-0.5-0.1-0.8-0.3-1s-0.6-0.3-1-0.3s-0.7,0.1-1,0.4s-0.4,0.5-0.4,0.9h-0.7
		c0-0.5,0.2-1,0.6-1.3s0.9-0.5,1.5-0.5s1.1,0.2,1.4,0.5s0.5,0.8,0.5,1.4v3.1c0,0.6,0.1,1.1,0.2,1.4v0.1H28.8z M27,33.1
		c0.4,0,0.7-0.1,1-0.3s0.5-0.5,0.6-0.8v-1.5h-1c-0.6,0-1,0.1-1.3,0.4s-0.5,0.6-0.5,1C25.9,32.7,26.2,33.1,27,33.1z"/>
	<path d="M32.1,25.6v1.6h1.1v0.6h-1.1V32c0,0.3,0.1,0.6,0.2,0.8s0.3,0.3,0.5,0.3c0.1,0,0.3,0,0.5-0.1v0.6c-0.1,0.1-0.4,0.1-0.6,0.1
		c-0.8,0-1.2-0.5-1.2-1.6v-4.3h-1v-0.6h1v-1.6H32.1z"/>
	<path d="M34.6,25.4c0-0.1,0-0.2,0.1-0.3S34.9,25,35,25s0.2,0,0.3,0.1s0.1,0.2,0.1,0.3s0,0.2-0.1,0.3s-0.2,0.1-0.3,0.1
		s-0.2,0-0.3-0.1S34.6,25.5,34.6,25.4z M35.3,33.6h-0.7v-6.3h0.7V33.6z"/>
	<path d="M40.3,32c0-0.3-0.1-0.5-0.3-0.7s-0.6-0.4-1.2-0.7c-0.5-0.2-0.9-0.4-1.1-0.6s-0.4-0.3-0.5-0.5S37,29.1,37,28.8
		c0-0.5,0.2-0.9,0.5-1.2s0.9-0.5,1.4-0.5c0.6,0,1.1,0.2,1.4,0.5s0.5,0.8,0.5,1.3h-0.7c0-0.4-0.1-0.7-0.4-0.9s-0.6-0.4-1-0.4
		s-0.7,0.1-0.9,0.3s-0.3,0.4-0.3,0.8c0,0.3,0.1,0.5,0.3,0.6s0.5,0.4,1.1,0.7s1,0.5,1.2,0.6s0.4,0.4,0.5,0.6s0.2,0.4,0.2,0.7
		c0,0.5-0.2,0.9-0.5,1.2s-0.8,0.5-1.4,0.5c-0.6,0-1.1-0.2-1.5-0.5s-0.6-0.8-0.6-1.3h0.7c0,0.4,0.2,0.7,0.4,0.9S38.5,33,39,33
		c0.4,0,0.7-0.1,1-0.3S40.3,32.3,40.3,32z"/>
	<path d="M42.9,33.6v-5.8H42v-0.6h0.9v-0.8c0-0.6,0.2-1.1,0.4-1.4s0.7-0.5,1.2-0.5c0.2,0,0.4,0,0.6,0.1v0.6
		c-0.2-0.1-0.4-0.1-0.5-0.1c-0.3,0-0.6,0.1-0.7,0.4s-0.3,0.6-0.3,1v0.8h1.2v0.6h-1.2v5.8L42.9,33.6L42.9,33.6z"/>
	<path d="M47.8,32.5l1.5-5.3H50l-2.2,7.4L47.7,35c-0.3,0.8-0.8,1.2-1.4,1.2c-0.1,0-0.3,0-0.5-0.1v-0.6c0.1,0,0.2,0,0.3,0
		c0.3,0,0.5-0.1,0.7-0.3s0.3-0.4,0.4-0.8l0.3-0.9l-2-6.3h0.7L47.8,32.5z"/>
	<path d="M55.5,32.5l1.5-5.3h0.7l-2.2,7.4L55.4,35c-0.4,0.7-0.8,1.1-1.5,1.1c-0.1,0-0.3,0-0.5-0.1v-0.6c0.1,0,0.2,0,0.3,0
		c0.3,0,0.5-0.1,0.7-0.3s0.3-0.4,0.4-0.8l0.3-0.9l-2-6.3h0.8L55.5,32.5z"/>
	<path d="M58.5,30.1c0-0.9,0.2-1.6,0.6-2.2s1-0.8,1.7-0.8s1.3,0.3,1.7,0.8s0.6,1.2,0.6,2.2v0.7c0,0.9-0.2,1.7-0.6,2.2
		s-1,0.8-1.7,0.8s-1.3-0.3-1.7-0.8s-0.6-1.2-0.6-2.1V30.1z M59.1,30.7c0,0.7,0.1,1.3,0.4,1.7c0.3,0.4,0.7,0.6,1.2,0.6
		s0.9-0.2,1.2-0.6s0.4-1,0.4-1.7v-0.6c0-0.7-0.1-1.3-0.4-1.7s-0.7-0.6-1.2-0.6s-0.9,0.2-1.2,0.6s-0.4,1-0.5,1.7L59.1,30.7L59.1,30.7
		z"/>
	<path d="M68,32.8c-0.4,0.6-0.9,0.9-1.7,0.9c-0.6,0-1-0.2-1.3-0.6s-0.4-1-0.4-1.8v-4.1h0.6v4.1c0,0.6,0.1,1,0.3,1.3S66,33,66.4,33
		c0.8,0,1.3-0.4,1.6-1.2v-4.6h0.7v6.3h-0.6L68,32.8z"/>
	<path d="M72.9,27.8c-0.2,0-0.3,0-0.4,0c-0.4,0-0.7,0.1-0.9,0.4s-0.4,0.6-0.5,1v4.4h-0.7v-6.3H71v0.9c0.3-0.7,0.8-1.1,1.5-1.1
		c0.2,0,0.3,0,0.4,0.1V27.8z"/>
	<path d="M78.7,33.1c0.5,0,0.8-0.1,1-0.4s0.4-0.6,0.4-1.1h0.6c0,0.6-0.2,1.2-0.6,1.5s-0.9,0.6-1.4,0.6c-0.8,0-1.3-0.2-1.7-0.7
		s-0.6-1.2-0.6-2.1v-0.8c0-1,0.2-1.7,0.6-2.2s1-0.7,1.7-0.7c0.6,0,1.1,0.2,1.5,0.6s0.6,1,0.6,1.7h-0.6c0-0.5-0.2-0.9-0.4-1.2
		s-0.6-0.4-1-0.4c-0.6,0-1,0.2-1.2,0.6s-0.4,1-0.4,1.7v0.7c0,0.8,0.1,1.4,0.4,1.8C77.7,32.9,78.2,33.1,78.7,33.1z"/>
	<path d="M84.6,27.8c-0.2,0-0.3,0-0.4,0c-0.4,0-0.7,0.1-0.9,0.4s-0.4,0.6-0.5,1v4.4h-0.7v-6.3h0.6v0.9c0.3-0.7,0.8-1.1,1.5-1.1
		c0.2,0,0.3,0,0.4,0.1V27.8z"/>
	<path d="M88.9,33.6c-0.1-0.2-0.1-0.5-0.1-0.9c-0.2,0.3-0.4,0.6-0.8,0.7s-0.6,0.3-1,0.3c-0.5,0-1-0.2-1.3-0.5s-0.5-0.7-0.5-1.3
		s0.2-1.1,0.6-1.5s1-0.5,1.8-0.6h1.1v-0.9c0-0.5-0.1-0.8-0.3-1s-0.6-0.3-1-0.3s-0.7,0.1-1,0.4S86,28.5,86,28.9h-0.7
		c0-0.5,0.2-1,0.6-1.3s1-0.5,1.6-0.5s1.1,0.2,1.4,0.5s0.5,0.8,0.5,1.4v3.1c0,0.6,0.1,1.1,0.2,1.4v0.1H88.9z M87.1,33.1
		c0.4,0,0.7-0.1,1-0.3s0.5-0.5,0.6-0.8v-1.5h-1c-0.6,0-1,0.1-1.3,0.4s-0.5,0.6-0.5,1C85.9,32.7,86.3,33.1,87.1,33.1z"/>
	<path d="M92.8,32.6l1.6-5.3h0.7l-2,6.3h-0.5l-2-6.3h0.7L92.8,32.6z"/>
	<path d="M96.2,25.4c0-0.1,0-0.2,0.1-0.3s0.2-0.1,0.3-0.1s0.2,0,0.3,0.1s0.1,0.2,0.1,0.3s0,0.2-0.1,0.3s-0.2,0.1-0.3,0.1
		s-0.2,0-0.3-0.1S96.2,25.5,96.2,25.4z M96.9,33.6h-0.7v-6.3h0.7V33.6z"/>
	<path d="M99.3,27.2v1c0.2-0.3,0.4-0.6,0.7-0.8s0.6-0.3,1-0.3c1.1,0,1.7,0.7,1.7,2.2v4.2h-0.6v-4.2c0-0.6-0.1-1-0.3-1.3
		s-0.5-0.4-0.9-0.4c-0.3,0-0.6,0.1-0.9,0.4s-0.5,0.6-0.6,1.1v4.4h-0.7v-6.3C98.7,27.2,99.3,27.2,99.3,27.2z"/>
	<path d="M104.3,30.1c0-1,0.2-1.7,0.5-2.2s0.9-0.7,1.5-0.7c0.7,0,1.3,0.3,1.6,1v-0.9h0.6v6.5c0,0.8-0.2,1.3-0.5,1.7
		s-0.9,0.6-1.6,0.6c-0.3,0-0.7-0.1-1.1-0.3s-0.6-0.4-0.8-0.6l0.3-0.5c0.4,0.5,0.9,0.7,1.5,0.7c0.5,0,0.9-0.1,1.2-0.4
		s0.4-0.7,0.4-1.3v-1c-0.4,0.6-0.9,0.9-1.6,0.9s-1.2-0.2-1.5-0.7s-0.5-1.2-0.5-2.2V30.1z M104.9,30.7c0,0.8,0.1,1.4,0.4,1.8
		s0.6,0.6,1.2,0.6c0.7,0,1.2-0.3,1.5-1v-3.2c-0.3-0.7-0.8-1.1-1.5-1.1c-0.5,0-0.9,0.2-1.2,0.6s-0.4,1-0.4,1.8V30.7z"/>
	<path d="M113.5,32c0-0.3-0.1-0.5-0.3-0.7c-0.2-0.2-0.6-0.4-1.2-0.7c-0.5-0.2-0.9-0.4-1.1-0.6s-0.4-0.3-0.5-0.5s-0.2-0.4-0.2-0.7
		c0-0.5,0.2-0.9,0.5-1.2s0.8-0.5,1.4-0.5s1.1,0.2,1.4,0.5s0.5,0.8,0.5,1.3h-0.7c0-0.4-0.1-0.7-0.4-0.9s-0.6-0.4-1-0.4
		s-0.7,0.1-0.9,0.3s-0.3,0.4-0.3,0.8c0,0.3,0.1,0.5,0.3,0.6s0.5,0.4,1.1,0.7s1,0.5,1.2,0.6s0.4,0.4,0.5,0.6s0.2,0.4,0.2,0.7
		c0,0.5-0.2,0.9-0.5,1.2s-0.8,0.5-1.4,0.5s-1.1-0.2-1.5-0.5s-0.6-0.8-0.6-1.3h0.7c0,0.4,0.2,0.7,0.4,0.9s0.6,0.3,1.1,0.3
		c0.4,0,0.7-0.1,1-0.3S113.5,32.3,113.5,32z"/>
</g>
</svg>
