<?xml version="1.0" encoding="utf-8"?>
<!-- Generator: Adobe Illustrator 24.3.0, SVG Export Plug-In . SVG Version: 6.00 Build 0)  -->
<svg version="1.1" id="Layer_1" xmlns="http://www.w3.org/2000/svg" xmlns:xlink="http://www.w3.org/1999/xlink" x="0px" y="0px"
	 viewBox="0 0 498 73" style="enable-background:new 0 0 498 73;" xml:space="preserve">
<style type="text/css">
	.st0{fill:#CE301B;}
	.st1{enable-background:new    ;}
	.st2{fill:#F3F8F1;}
</style>
<path id="Rectangle" class="st0" d="M24,0h450c13.3,0,24,10.7,24,24v25c0,13.3-10.7,24-24,24H24C10.7,73,0,62.3,0,49V24
	C0,10.7,10.7,0,24,0z"/>
<g class="st1">
	<path class="st2" d="M68.2,26.4H79v1.2h-9.5v7.6h8.9v1.2h-8.9v8.8h-1.3V26.4z"/>
	<path class="st2" d="M84,45.2h-1.3V26.4H84V45.2z"/>
	<path class="st2" d="M99.6,40.8c0.3,0.5,0.6,1,0.9,1.5s0.5,0.9,0.7,1.2h0.1c-0.1-0.5-0.1-1.1-0.2-1.7c0-0.6,0-1.2,0-1.9V26.4h1.3
		v18.9h-1.4l-9.2-14.4c-0.3-0.5-0.6-1-0.9-1.5c-0.3-0.4-0.5-0.9-0.7-1.2h-0.1c0.1,0.5,0.1,1.1,0.2,1.7c0,0.6,0,1.2,0,1.9v13.6H89
		V26.4h1.4L99.6,40.8z"/>
	<path class="st2" d="M121.4,35.8c0,3.1-0.8,5.5-2.4,7.1c-1.6,1.6-3.9,2.4-7,2.4h-4.6V26.4h4.6c3.1,0,5.4,0.8,7,2.4
		C120.6,30.3,121.4,32.7,121.4,35.8z M120.1,35.8c0-2.9-0.7-5-2.1-6.3c-1.4-1.3-3.4-1.9-6-1.9h-3.3V44h3.3c1.3,0,2.4-0.2,3.4-0.5
		c1-0.3,1.8-0.8,2.5-1.5s1.2-1.5,1.6-2.6C119.9,38.4,120.1,37.2,120.1,35.8z"/>
	<path class="st2" d="M138.3,36.2l5.7-9.9h1.4l-6.5,11v7.8h-1.3v-7.8l-6.5-11h1.4L138.3,36.2L138.3,36.2z"/>
	<path class="st2" d="M154.7,45.4c-1.3,0-2.5-0.2-3.5-0.7s-1.8-1.2-2.5-2s-1.2-1.9-1.5-3.1c-0.3-1.2-0.5-2.5-0.5-3.9
		c0-1.4,0.2-2.7,0.5-3.9c0.3-1.2,0.8-2.2,1.5-3.1s1.5-1.5,2.5-2s2.2-0.7,3.5-0.7c1.3,0,2.5,0.2,3.5,0.7c1,0.5,1.8,1.2,2.5,2
		s1.2,1.9,1.5,3.1c0.3,1.2,0.5,2.5,0.5,3.9c0,1.4-0.2,2.7-0.5,3.9c-0.3,1.2-0.8,2.2-1.5,3.1s-1.5,1.5-2.5,2
		C157.2,45.2,156,45.4,154.7,45.4z M154.7,44.3c1.1,0,2.1-0.2,3-0.6c0.8-0.4,1.5-1,2.1-1.8c0.6-0.8,1-1.7,1.2-2.7
		c0.3-1,0.4-2.2,0.4-3.4c0-1.2-0.1-2.4-0.4-3.4c-0.3-1-0.7-1.9-1.2-2.7c-0.6-0.8-1.3-1.3-2.1-1.8c-0.8-0.4-1.8-0.6-3-0.6
		c-1.1,0-2.1,0.2-3,0.6c-0.8,0.4-1.5,1-2.1,1.8c-0.6,0.8-1,1.7-1.2,2.7c-0.3,1-0.4,2.2-0.4,3.4c0,1.2,0.1,2.4,0.4,3.4
		c0.3,1,0.7,1.9,1.2,2.7c0.6,0.8,1.3,1.3,2.1,1.8C152.5,44.1,153.5,44.3,154.7,44.3z"/>
	<path class="st2" d="M173.2,45.4c-1,0-1.9-0.1-2.8-0.4c-0.8-0.3-1.5-0.8-2.1-1.4c-0.6-0.6-1-1.4-1.4-2.4c-0.3-1-0.5-2.1-0.5-3.4
		V26.4h1.3v11.5c0,2.3,0.5,3.9,1.5,4.9s2.3,1.5,4,1.5c1.7,0,3-0.5,4-1.5c1-1,1.5-2.6,1.5-4.9V26.4h1.3v11.5c0,1.3-0.2,2.5-0.5,3.4
		c-0.3,1-0.8,1.7-1.4,2.4c-0.6,0.6-1.3,1.1-2.1,1.4C175.1,45.3,174.2,45.4,173.2,45.4z"/>
	<path class="st2" d="M197.4,31.8c0,1.5-0.4,2.7-1.3,3.7c-0.9,0.9-2,1.5-3.5,1.8l4.9,8h-1.5l-4.8-7.9h-0.1h-5.1v7.9h-1.3V26.4h6.6
		c1,0,1.8,0.1,2.5,0.4c0.7,0.3,1.4,0.6,1.9,1.1c0.5,0.5,0.9,1,1.2,1.7C197.3,30.2,197.4,31,197.4,31.8z M196.1,31.8
		c0-1.3-0.4-2.4-1.2-3.1c-0.8-0.8-2-1.1-3.5-1.1h-5.3v8.6h5.1c1.5,0,2.7-0.4,3.6-1.1C195.7,34.2,196.1,33.1,196.1,31.8z"/>
	<path class="st2" d="M219.6,40.8c0.3,0.5,0.6,1,0.9,1.5s0.5,0.9,0.7,1.2h0.1c-0.1-0.5-0.1-1.1-0.2-1.7c0-0.6,0-1.2,0-1.9V26.4h1.3
		v18.9H221l-9.2-14.4c-0.3-0.5-0.6-1-0.9-1.5c-0.3-0.4-0.5-0.9-0.7-1.2h-0.1c0.1,0.5,0.1,1.1,0.2,1.7c0,0.6,0,1.2,0,1.9v13.6H209
		V26.4h1.4L219.6,40.8z"/>
	<path class="st2" d="M227.4,26.4h11v1.2h-9.7v7.4h9.1v1.2h-9.1v8h9.9v1.1h-11.2V26.4z"/>
	<path class="st2" d="M257,39.7c0.2,0.8,0.4,1.5,0.6,2.2c0.2,0.7,0.3,1.4,0.4,2h0.1c0.1-0.6,0.2-1.2,0.3-2c0.1-0.7,0.3-1.5,0.5-2.3
		l3.2-13.3h1.3l-4.6,18.9h-1.5L253,30.6c-0.1-0.5-0.3-1-0.4-1.5c-0.1-0.5-0.2-0.9-0.3-1.3h-0.1c-0.1,0.3-0.2,0.8-0.3,1.3
		c-0.1,0.5-0.3,1-0.4,1.5L247,45.2h-1.5l-4.6-18.9h1.3l3.2,13.3c0.2,0.8,0.3,1.5,0.5,2.3c0.1,0.7,0.2,1.4,0.3,2h0.1
		c0.1-0.6,0.2-1.3,0.4-2c0.2-0.7,0.3-1.5,0.6-2.2l4-13.3h1.7L257,39.7z"/>
	<path class="st2" d="M280.3,40c0,1.8-0.4,3.2-1.2,4.1s-1.8,1.3-3.2,1.3c-0.6,0-1.2-0.1-1.8-0.2c-0.6-0.1-1.1-0.3-1.6-0.6l0.4-1.1
		c0.4,0.2,0.8,0.4,1.4,0.5c0.5,0.1,1,0.2,1.6,0.2c1,0,1.7-0.3,2.3-0.9c0.5-0.6,0.8-1.7,0.8-3.3V26.4h1.3V40z"/>
	<path class="st2" d="M286.4,39.7l-2,5.6H283l7.2-18.9h1.3l7.2,18.9h-1.3l-2-5.6H286.4z M292.1,31.7l-1.3-4h-0.1l-1.4,4l-2.5,6.7
		h7.9L292.1,31.7z"/>
	<path class="st2" d="M308.9,27.3c-2.4,0-4.2,0.7-5.5,2.2c-1.3,1.4-2,3.5-2,6.3c0,1.3,0.2,2.5,0.5,3.6c0.3,1,0.8,1.9,1.5,2.6
		c0.6,0.7,1.4,1.3,2.3,1.6s1.9,0.5,3,0.5c0.9,0,1.7-0.1,2.4-0.3s1.3-0.4,1.9-0.7l0.3,1.1c-0.3,0.2-0.6,0.3-1,0.4
		c-0.3,0.1-0.7,0.2-1,0.3c-0.4,0.1-0.8,0.2-1.2,0.2s-0.9,0.1-1.4,0.1c-1.5,0-2.8-0.2-3.8-0.7c-1.1-0.5-2-1.1-2.7-1.9s-1.2-1.8-1.6-3
		c-0.3-1.2-0.5-2.5-0.5-3.9c0-1.5,0.2-2.8,0.6-4c0.4-1.2,0.9-2.2,1.7-3.1c0.7-0.8,1.7-1.5,2.8-2c1.1-0.5,2.4-0.7,3.8-0.7
		c0.9,0,1.7,0.1,2.4,0.3c0.7,0.2,1.3,0.4,1.9,0.7l-0.3,1.1c-0.5-0.2-1.1-0.4-1.8-0.6C310.4,27.4,309.7,27.3,308.9,27.3z"/>
	<path class="st2" d="M318.2,45.2h-1.3V26.4h1.3V45.2z M321.5,35.2l8.7,10.1h-1.6l-8.4-9.7v-0.7l8.1-8.5h1.6L321.5,35.2z"/>
	<path class="st2" d="M333.2,26.4h11v1.2h-9.7v7.4h9.1v1.2h-9.1v8h9.9v1.1h-11.2V26.4z"/>
	<path class="st2" d="M359.4,27.6l-5.9,0v17.7h-1.3V27.5l-5.9,0v-1.2h13.2V27.6z"/>
	<path class="st2" d="M382,36.1h-10.6v9.1h-1.3V26.4h1.3v8.6H382v-8.6h1.3v18.9H382V36.1z"/>
	<path class="st2" d="M388.3,26.4h11v1.2h-9.7v7.4h9.1v1.2h-9.1v8h9.9v1.1h-11.2V26.4z"/>
	<path class="st2" d="M415.9,31.8c0,1.5-0.4,2.7-1.3,3.7s-2,1.5-3.5,1.8l4.9,8h-1.5l-4.8-7.9h-0.1h-5.1v7.9h-1.3V26.4h6.6
		c1,0,1.8,0.1,2.5,0.4c0.7,0.3,1.4,0.6,1.9,1.1c0.5,0.5,0.9,1,1.2,1.7C415.8,30.2,415.9,31,415.9,31.8z M414.6,31.8
		c0-1.3-0.4-2.4-1.2-3.1c-0.8-0.8-2-1.1-3.5-1.1h-5.3v8.6h5.1c1.5,0,2.7-0.4,3.6-1.1S414.6,33.1,414.6,31.8z"/>
	<path class="st2" d="M419.7,26.4h11v1.2H421v7.4h9.1v1.2H421v8h9.9v1.1h-11.2V26.4z"/>
</g>
</svg>
