<?xml version="1.0" encoding="utf-8"?>
<!-- Generator: Adobe Illustrator 24.3.0, SVG Export Plug-In . SVG Version: 6.00 Build 0)  -->
<svg version="1.1" id="Layer_1" xmlns="http://www.w3.org/2000/svg" xmlns:xlink="http://www.w3.org/1999/xlink" x="0px" y="0px"
	 viewBox="0 0 123 123" style="enable-background:new 0 0 123 123;" xml:space="preserve">
<style type="text/css">
	.st0{fill:none;}
	.st1{fill:#F2F7F0;}
	.st2{fill:#5D635D;}
	.st3{fill:url(#SVGID_1_);}
</style>
<pattern  x="-80.37" y="-80.05" width="100" height="100" patternUnits="userSpaceOnUse" id="New_Pattern_Swatch_7" viewBox="0 -100 100 100" style="overflow:visible;">
	<g>
		<rect y="-100" class="st0" width="100" height="100"/>
		<g id="Group_10_3_" transform="translate(-69 -328.949)">
			<rect id="Rectangle_3_3_" x="69" y="228.95" class="st1" width="100" height="100"/>
		</g>
	</g>
</pattern>
<g>
	<circle class="st2" cx="61.5" cy="61.5" r="61.5"/>
	<g>
		<g>
			<pattern  id="SVGID_1_" xlink:href="#New_Pattern_Swatch_7" patternTransform="matrix(1 0 0 1 92.3671 82.0468)">
			</pattern>
			<path class="st3" d="M78.21,71.54c1.93-1.45,3.33-3.43,4.05-5.74l7.52-22.28H41.41l-0.53-5.92c-0.18-2.08-1.13-4-2.67-5.42
				C36.66,30.78,34.66,30,32.57,30h-6.35v4.96h6.35c1.76,0,3.21,1.32,3.36,3.08l3.88,43.05c0,0.01,0,0.02,0,0.02
				c0.38,3.8,3.23,6.77,6.88,7.39c0.97,2.9,3.71,5,6.94,5c3.17,0,5.87-2.02,6.89-4.84h5.83c1.02,2.82,3.72,4.84,6.89,4.84
				c4.04,0,7.32-3.28,7.32-7.32c0-4.04-3.28-7.32-7.32-7.32c-3.17,0-5.87,2.02-6.89,4.84h-5.83c-1.02-2.82-3.72-4.84-6.89-4.84
				c-3.06,0-5.68,1.89-6.78,4.56c-1.14-0.45-1.97-1.5-2.1-2.79l-0.62-6.85H71.5C73.93,73.79,76.25,73.01,78.21,71.54z M73.24,83.84
				c1.3,0,2.36,1.06,2.36,2.36s-1.06,2.36-2.36,2.36c-1.3,0-2.36-1.06-2.36-2.36S71.94,83.84,73.24,83.84z M53.64,83.84
				c1.3,0,2.36,1.06,2.36,2.36s-1.06,2.36-2.36,2.36s-2.36-1.06-2.36-2.36S52.34,83.84,53.64,83.84z M43.69,68.83L43.69,68.83
				l-1.83-20.34h41.01l-5.32,15.76l-0.02,0.06c-0.82,2.66-3.3,4.52-6.02,4.52H43.69z"/>
		</g>
	</g>
</g>
</svg>
