<?xml version="1.0" encoding="utf-8"?>
<!-- Generator: Adobe Illustrator 24.3.0, SVG Export Plug-In . SVG Version: 6.00 Build 0)  -->
<svg version="1.1" id="Layer_1" xmlns="http://www.w3.org/2000/svg" xmlns:xlink="http://www.w3.org/1999/xlink" x="0px" y="0px"
	 viewBox="0 0 123 123" style="enable-background:new 0 0 123 123;" xml:space="preserve">
<style type="text/css">
	.st0{fill:#5D635D;}
	.st1{fill:#F2F7F0;}
</style>
<g>
	<circle class="st0" cx="61.5" cy="61.5" r="61.5"/>
	<g>
		<g>
			<path class="st1" d="M89.08,36.01H33.92c-3.24,0-5.88,2.64-5.88,5.88v39.22c0,3.23,2.63,5.88,5.88,5.88h55.17
				c3.23,0,5.88-2.63,5.88-5.88V41.89C94.97,38.66,92.34,36.01,89.08,36.01z M88.27,39.93L61.62,66.58L34.75,39.93H88.27z
				 M31.95,80.3V42.68l18.89,18.73L31.95,80.3z M34.73,83.07l18.9-18.9l6.62,6.57c0.77,0.76,2,0.76,2.77-0.01l6.46-6.46l18.8,18.8
				H34.73z M91.05,80.3l-18.8-18.8l18.8-18.8V80.3z"/>
		</g>
	</g>
</g>
</svg>
