<?xml version="1.0" encoding="utf-8"?>
<!-- Generator: Adobe Illustrator 25.0.0, SVG Export Plug-In . SVG Version: 6.00 Build 0)  -->
<svg version="1.1" id="Layer_1" xmlns="http://www.w3.org/2000/svg" xmlns:xlink="http://www.w3.org/1999/xlink" x="0px" y="0px"
	 viewBox="0 0 348 76" style="enable-background:new 0 0 348 76;" xml:space="preserve">
<style type="text/css">
	.st0{fill:#9EA77A;}
	.st1{enable-background:new    ;}
	.st2{fill:#F3F8F1;}
	.st3{fill:none;stroke:#F3F8F1;}
</style>
<path id="Rectangle_5" class="st0" d="M38,0h272c21,0,38,17,38,38l0,0c0,21-17,38-38,38H38C17,76,0,59,0,38l0,0C0,17,17,0,38,0z"/>
<g class="st1">
	<path class="st2" d="M40.1,42l-2.6,7h-1.7l9-23.6h1.6l9,23.6h-1.7l-2.6-7H40.1z M47.3,32.1l-1.7-5h-0.1l-1.7,5l-3.2,8.4h9.9
		L47.3,32.1z"/>
	<path class="st2" d="M76.8,37.2c0,3.9-1,6.8-3,8.8c-2,2-4.9,3-8.8,3h-5.8V25.4h5.8c3.9,0,6.8,1,8.8,3
		C75.8,30.4,76.8,33.3,76.8,37.2z M75.2,37.2c0-3.6-0.9-6.2-2.6-7.8s-4.2-2.4-7.5-2.4H61v20.6h4.1c1.6,0,3-0.2,4.3-0.6
		c1.2-0.4,2.3-1,3.2-1.9c0.9-0.8,1.5-1.9,2-3.2C75,40.5,75.2,39,75.2,37.2z"/>
	<path class="st2" d="M99.2,37.2c0,3.9-1,6.8-3,8.8c-2,2-4.9,3-8.8,3h-5.8V25.4h5.8c3.9,0,6.8,1,8.8,3
		C98.2,30.4,99.2,33.3,99.2,37.2z M97.5,37.2c0-3.6-0.9-6.2-2.6-7.8s-4.2-2.4-7.5-2.4h-4.1v20.6h4.1c1.6,0,3-0.2,4.3-0.6
		c1.2-0.4,2.3-1,3.2-1.9c0.9-0.8,1.5-1.9,2-3.2C97.3,40.5,97.5,39,97.5,37.2z"/>
	<path class="st2" d="M127.7,26.9l-7.4,0V49h-1.6V26.9l-7.4,0v-1.5h16.5V26.9z"/>
	<path class="st2" d="M139.7,49.3c-1.7,0-3.1-0.3-4.4-0.9c-1.2-0.6-2.3-1.4-3.1-2.5c-0.8-1.1-1.5-2.3-1.9-3.8
		c-0.4-1.5-0.6-3.1-0.6-4.8s0.2-3.3,0.6-4.8c0.4-1.5,1.1-2.8,1.9-3.8c0.8-1.1,1.9-1.9,3.1-2.5c1.2-0.6,2.7-0.9,4.4-0.9
		c1.7,0,3.1,0.3,4.4,0.9c1.2,0.6,2.3,1.4,3.1,2.5c0.8,1.1,1.5,2.4,1.9,3.8c0.4,1.5,0.6,3.1,0.6,4.8s-0.2,3.3-0.6,4.8
		c-0.4,1.5-1,2.8-1.9,3.8c-0.8,1.1-1.9,1.9-3.1,2.5C142.9,49,141.4,49.3,139.7,49.3z M139.7,47.8c1.4,0,2.7-0.3,3.7-0.8
		c1.1-0.5,1.9-1.3,2.6-2.2c0.7-0.9,1.2-2.1,1.6-3.4c0.3-1.3,0.5-2.7,0.5-4.3s-0.2-3-0.5-4.3c-0.3-1.3-0.9-2.4-1.6-3.4
		c-0.7-0.9-1.6-1.7-2.6-2.2c-1-0.5-2.3-0.8-3.7-0.8c-1.4,0-2.7,0.3-3.7,0.8c-1,0.5-1.9,1.3-2.6,2.2c-0.7,0.9-1.2,2.1-1.6,3.4
		c-0.3,1.3-0.5,2.7-0.5,4.3s0.2,3,0.5,4.3c0.3,1.3,0.9,2.4,1.6,3.4s1.6,1.7,2.6,2.2C137.1,47.6,138.3,47.8,139.7,47.8z"/>
	<path class="st2" d="M174.1,26.6c-3,0-5.3,0.9-6.9,2.7s-2.5,4.4-2.5,7.9c0,1.7,0.2,3.2,0.6,4.5c0.4,1.3,1,2.4,1.8,3.3
		c0.8,0.9,1.8,1.6,2.9,2c1.1,0.5,2.4,0.7,3.8,0.7c1.1,0,2.1-0.1,3-0.4c0.9-0.2,1.7-0.5,2.3-0.9l0.4,1.4c-0.4,0.2-0.8,0.4-1.2,0.6
		s-0.8,0.3-1.3,0.4c-0.5,0.1-0.9,0.2-1.5,0.3c-0.5,0.1-1.1,0.1-1.8,0.1c-1.8,0-3.4-0.3-4.8-0.9c-1.4-0.6-2.5-1.4-3.4-2.4
		c-0.9-1-1.6-2.3-2-3.8c-0.4-1.5-0.6-3.1-0.6-4.9s0.2-3.5,0.7-5c0.5-1.5,1.2-2.8,2.1-3.8c0.9-1.1,2.1-1.9,3.4-2.5
		c1.4-0.6,3-0.9,4.8-0.9c1.1,0,2.1,0.1,3,0.4c0.9,0.2,1.7,0.5,2.3,0.9l-0.4,1.4c-0.7-0.3-1.4-0.6-2.3-0.8S175,26.6,174.1,26.6z"/>
	<path class="st2" d="M186.1,42l-2.6,7h-1.7l9-23.6h1.6l9,23.6h-1.7l-2.6-7H186.1z M193.3,32.1l-1.7-5h-0.1l-1.7,5l-3.2,8.4h9.9
		L193.3,32.1z"/>
	<path class="st2" d="M221.1,32.2c0,1.9-0.5,3.4-1.6,4.6s-2.5,1.9-4.4,2.2l6.1,10h-1.8l-6-9.9h-0.1H207V49h-1.6V25.4h8.2
		c1.2,0,2.3,0.2,3.2,0.5c0.9,0.3,1.7,0.8,2.4,1.4c0.6,0.6,1.1,1.3,1.5,2.2C220.9,30.3,221.1,31.2,221.1,32.2z M219.4,32.2
		c0-1.7-0.5-3-1.5-3.9c-1-0.9-2.5-1.4-4.4-1.4H207v10.7h6.3c1.9,0,3.4-0.5,4.5-1.4S219.4,33.9,219.4,32.2z"/>
	<path class="st2" d="M239.4,26.9l-7.4,0V49h-1.6V26.9l-7.4,0v-1.5h16.5V26.9z"/>
</g>
<g id="Group_15" transform="translate(270.594 22.162)">
	<g id="Group_4">
		<path id="Path_50" class="st2" d="M25.9,20.7c1-0.7,1.7-1.7,2-2.9l3.7-11.1h-24L7.3,3.8C7.1,1.6,5.3,0,3.2,0H0v2.5h3.2
			C4,2.5,4.8,3.1,4.8,4l1.9,21.4l0,0c0.2,1.9,1.6,3.4,3.4,3.7c0.6,1.9,2.7,2.9,4.6,2.3c1.1-0.4,1.9-1.2,2.3-2.2h3
			c0.7,1.9,2.8,2.9,4.7,2.2c1.9-0.7,2.9-2.8,2.2-4.7c-0.7-1.9-2.8-2.9-4.7-2.2c-1,0.4-1.8,1.2-2.2,2.2h-2.9
			c-0.7-1.9-2.8-2.9-4.7-2.2c-1,0.4-1.7,1.1-2.1,2.1c-0.6-0.2-1-0.8-1-1.4L9,21.8h13.6C23.7,21.8,24.9,21.4,25.9,20.7z M23.4,26.8
			c0.6,0,1.2,0.5,1.2,1.2s-0.5,1.2-1.2,1.2c-0.6,0-1.2-0.5-1.2-1.2C22.2,27.3,22.8,26.8,23.4,26.8z M13.7,26.8
			c0.6,0,1.2,0.5,1.2,1.2s-0.5,1.2-1.2,1.2s-1.2-0.5-1.2-1.2l0,0C12.5,27.3,13,26.8,13.7,26.8z M8.7,19.3L8.7,19.3L7.8,9.2h20.4
			L25.6,17l0,0c-0.4,1.3-1.6,2.2-3,2.3H8.7z"/>
	</g>
</g>
<g id="Group_17" transform="translate(284.101 32.922)">
	<line id="Line_7" class="st3" x1="3.3" y1="0" x2="3.3" y2="6.5"/>
	<line id="Line_8" class="st3" x1="0" y1="3.3" x2="6.5" y2="3.3"/>
</g>
</svg>
