<?xml version="1.0" encoding="utf-8"?>
<!-- Generator: Adobe Illustrator 24.3.0, SVG Export Plug-In . SVG Version: 6.00 Build 0)  -->
<svg version="1.1" id="Layer_1" xmlns="http://www.w3.org/2000/svg" xmlns:xlink="http://www.w3.org/1999/xlink" x="0px" y="0px"
	 viewBox="0 0 123 123" style="enable-background:new 0 0 123 123;" xml:space="preserve">
<style type="text/css">
	.st0{fill:#5D635D;}
	.st1{fill:#F2F7F0;}
</style>
<g>
	<circle class="st0" cx="61.5" cy="61.5" r="61.5"/>
	<g>
		<g>
			<path class="st1" d="M29.79,84.39l5.9,5.9l17.74-17.66c3.59,2.47,7.93,3.93,12.61,3.93c12.27,0,22.26-9.99,22.26-22.26
				s-9.99-22.26-22.26-22.26s-22.26,9.99-22.26,22.26c0,4.59,1.39,8.85,3.78,12.4L29.79,84.39z M50.07,54.33
				c0-8.81,7.17-15.97,15.97-15.97s15.97,7.17,15.97,15.97c0,8.81-7.17,15.97-15.97,15.97S50.07,63.14,50.07,54.33z"/>
		</g>
	</g>
</g>
</svg>
