<?xml version="1.0" encoding="utf-8"?>
<!-- Generator: Adobe Illustrator 24.3.0, SVG Export Plug-In . SVG Version: 6.00 Build 0)  -->
<svg version="1.1" id="Layer_1" xmlns="http://www.w3.org/2000/svg" xmlns:xlink="http://www.w3.org/1999/xlink" x="0px" y="0px"
	 viewBox="0 0 123 123" style="enable-background:new 0 0 123 123;" xml:space="preserve">
<style type="text/css">
	.st0{fill:#5D635D;}
	.st1{fill:#F2F7F0;}
</style>
<g>
	<circle class="st0" cx="61.5" cy="61.5" r="61.5"/>
	<g>
		<g>
			<g>
				<path class="st1" d="M85.13,51.05c0-13.03-10.6-23.63-23.63-23.63s-23.63,10.6-23.63,23.63c0,5.33,3.74,14.11,11.11,26.11
					c3.81,6.2,7.66,11.71,9.61,14.44h-8.34v4h22.51v-4h-8.34c1.95-2.73,5.8-8.24,9.61-14.44C81.39,65.16,85.13,56.38,85.13,51.05z
					 M61.5,88.81c-6.68-9.36-19.64-29.25-19.64-37.76c0-10.83,8.81-19.64,19.64-19.64s19.64,8.81,19.64,19.64
					C81.14,59.55,68.18,79.45,61.5,88.81z"/>
			</g>
		</g>
		<g>
			<g>
				<path class="st1" d="M61.5,38.55c-6.69,0-12.13,5.44-12.13,12.13s5.44,12.13,12.13,12.13s12.13-5.44,12.13-12.13
					C73.63,43.99,68.19,38.55,61.5,38.55z M61.5,58.81c-4.48,0-8.13-3.65-8.13-8.13c0-4.48,3.65-8.13,8.13-8.13s8.13,3.65,8.13,8.13
					C69.63,55.16,65.98,58.81,61.5,58.81z"/>
			</g>
		</g>
	</g>
</g>
</svg>
